# xmcd CD database file
#
# Track frame offsets:
#	187
#	10342
#	24420
#	45395
#	56775
#	68900
#	80890
#	93372
#	103555
#	115007
#	131477
#	142455
#	155875
#	166135
#	176320
#	185540
#	196887
#	207975
#	217895
#	230110
#
# Disc length: 3217 seconds
#
# Revision: 1
# Processed by: cddbd v1.5.2PL0 Copyright (c) Steve Scherf et al.
# Submitted via: CDex 1.51
#
DISCID=1e0c8f14
DTITLE=Johnny Winter - Vintage Tracks
DYEAR=1970
DGENRE=Blues
TTITLE0=Out Of Sight
TTITLE1=Low Down Gal Of Mine
TTITLE2=Going Down Slow
TTITLE3=Avocado Green
TTITLE4=Parchman Farm
TTITLE5=Livin' The Blues
TTITLE6=Leavin' Blues
TTITLE7=38-32-20
TTITLE8=Bad News
TTITLE9=Kind Hearted Woman
TTITLE10=Oh My Darlin'
TTITLE11=Five After Four A.M.
TTITLE12=That's What Love Does
TTITLE13=Shed So Many Tears
TTITLE14=Road Runner
TTITLE15=The Guy You Left Behind
TTITLE16=Ganster Of Love
TTITLE17=By The Light Of Silvery Moon
TTITLE18=Leave My Woman Alone
TTITLE19=I Can't Belive You Want To Leave
EXTD=YEAR: 1970
EXTT0=
EXTT1=
EXTT2=
EXTT3=
EXTT4=
EXTT5=
EXTT6=
EXTT7=
EXTT8=
EXTT9=
EXTT10=
EXTT11=
EXTT12=
EXTT13=
EXTT14=
EXTT15=
EXTT16=
EXTT17=
EXTT18=
EXTT19=
PLAYORDER=
